<svg width="20" height="28" viewBox="0 0 20 28" fill="none" xmlns="http://www.w3.org/2000/svg">
<path d="M16.1244 25.8787C14.9528 27.0503 13.0533 27.0503 11.8817 25.8787L5.66407 19.661L5.00572 19.009L0.00315819 14.0064C0.00141383 14.0047 0.00141375 14.0019 0.00315787 14.0001V14.0001L0.661563 13.3354L5.65986 8.3371C5.66073 8.33623 5.66214 8.33623 5.66302 8.3371V8.3371C5.66389 8.33797 5.6653 8.33797 5.66617 8.3371L11.8822 2.12131C13.0538 0.949749 14.9533 0.949794 16.1249 2.12141L17.5492 3.54585C18.7207 4.71743 18.7207 6.61687 17.5491 7.78842L13.4589 11.8786C12.2874 13.0502 12.2874 14.9497 13.4589 16.1213L17.5491 20.2114C18.7206 21.383 18.7206 23.2825 17.549 24.4541L16.1244 25.8787ZM5.67307 17.0301L6.33189 17.6827L12.4926 23.8434C13.3268 24.6776 14.6793 24.6776 15.5135 23.8434V23.8434C16.3477 23.0092 16.3477 21.6568 15.5135 20.8226L10.8124 16.1213C9.64088 14.9497 9.6409 13.0502 10.8124 11.8787L15.5135 7.1776C16.3477 6.34341 16.3477 4.99093 15.5135 4.15675V4.15675C14.6793 3.32256 13.3268 3.32256 12.4926 4.15676L5.67781 10.9717C5.67694 10.9725 5.67553 10.9725 5.67465 10.9717V10.9717C5.67378 10.9708 5.67237 10.9708 5.6715 10.9717L4.1581 12.485C3.32141 13.3217 3.32138 14.6782 4.15803 15.5149L5.67307 17.0301Z" fill="#B1B1B1"/>
</svg>
