<svg width="44" height="44" viewBox="0 0 44 44" fill="none" xmlns="http://www.w3.org/2000/svg">
<path d="M12.8333 21.9999C12.8356 21.5319 12.9421 21.0702 13.1451 20.6485C13.348 20.2267 13.6423 19.8555 14.0066 19.5616L23.3566 11.8432C23.9195 11.3922 24.5977 11.1084 25.3141 11.0241C26.0304 10.9399 26.7561 11.0585 27.4083 11.3666C27.9751 11.6164 28.458 12.0241 28.7993 12.541C29.1407 13.0579 29.326 13.6622 29.3333 14.2816L29.3333 29.7182C29.326 30.3376 29.1407 30.9419 28.7993 31.4588C28.458 31.9757 27.9751 32.3834 27.4083 32.6332C26.7561 32.9413 26.0304 33.06 25.3141 32.9757C24.5977 32.8914 23.9195 32.6076 23.3566 32.1566L14.0066 24.4382C13.6423 24.1444 13.348 23.7731 13.1451 23.3513C12.9421 22.9296 12.8356 22.4679 12.8333 21.9999Z" fill="white"/>
</svg>
