<svg width="31" height="31" viewBox="0 0 31 31" fill="none" xmlns="http://www.w3.org/2000/svg">
<path d="M23.25 5.16666H21.9583V3.87499C21.9583 3.53242 21.8222 3.20388 21.58 2.96165C21.3378 2.71941 21.0092 2.58333 20.6667 2.58333C20.3241 2.58333 19.9956 2.71941 19.7533 2.96165C19.5111 3.20388 19.375 3.53242 19.375 3.87499V5.16666H11.625V3.87499C11.625 3.53242 11.4889 3.20388 11.2467 2.96165C11.0044 2.71941 10.6759 2.58333 10.3333 2.58333C9.99076 2.58333 9.66222 2.71941 9.41999 2.96165C9.17775 3.20388 9.04167 3.53242 9.04167 3.87499V5.16666H7.75C6.72229 5.16666 5.73666 5.57492 5.00996 6.30162C4.28326 7.02833 3.875 8.01395 3.875 9.04166V24.5417C3.875 25.5694 4.28326 26.555 5.00996 27.2817C5.73666 28.0084 6.72229 28.4167 7.75 28.4167H23.25C24.2777 28.4167 25.2633 28.0084 25.99 27.2817C26.7167 26.555 27.125 25.5694 27.125 24.5417V9.04166C27.125 8.01395 26.7167 7.02833 25.99 6.30162C25.2633 5.57492 24.2777 5.16666 23.25 5.16666ZM7.75 7.75H9.04167V9.04166C9.04167 9.38423 9.17775 9.71277 9.41999 9.95501C9.66222 10.1972 9.99076 10.3333 10.3333 10.3333C10.6759 10.3333 11.0044 10.1972 11.2467 9.95501C11.4889 9.71277 11.625 9.38423 11.625 9.04166V7.75H19.375V9.04166C19.375 9.38423 19.5111 9.71277 19.7533 9.95501C19.9956 10.1972 20.3241 10.3333 20.6667 10.3333C21.0092 10.3333 21.3378 10.1972 21.58 9.95501C21.8222 9.71277 21.9583 9.38423 21.9583 9.04166V7.75H23.25C23.5926 7.75 23.9211 7.88608 24.1633 8.12832C24.4056 8.37055 24.5417 8.69909 24.5417 9.04166V14.2083H6.45833V9.04166C6.45833 8.69909 6.59442 8.37055 6.83665 8.12832C7.07889 7.88608 7.40743 7.75 7.75 7.75ZM23.25 25.8333H7.75C7.40743 25.8333 7.07889 25.6972 6.83665 25.455C6.59442 25.2128 6.45833 24.8842 6.45833 24.5417V16.7917H24.5417V24.5417C24.5417 24.8842 24.4056 25.2128 24.1633 25.455C23.9211 25.6972 23.5926 25.8333 23.25 25.8333Z" fill="#B1B1B1"/>
<path d="M10.3334 21.9583C11.0468 21.9583 11.6251 21.38 11.6251 20.6667C11.6251 19.9533 11.0468 19.375 10.3334 19.375C9.62005 19.375 9.04175 19.9533 9.04175 20.6667C9.04175 21.38 9.62005 21.9583 10.3334 21.9583Z" fill="#B1B1B1"/>
<path d="M20.6666 19.375H15.4999C15.1573 19.375 14.8288 19.5111 14.5866 19.7533C14.3443 19.9956 14.2083 20.3241 14.2083 20.6667C14.2083 21.0092 14.3443 21.3378 14.5866 21.58C14.8288 21.8222 15.1573 21.9583 15.4999 21.9583H20.6666C21.0092 21.9583 21.3377 21.8222 21.5799 21.58C21.8222 21.3378 21.9583 21.0092 21.9583 20.6667C21.9583 20.3241 21.8222 19.9956 21.5799 19.7533C21.3377 19.5111 21.0092 19.375 20.6666 19.375Z" fill="#B1B1B1"/>
</svg>
