<svg width="35" height="35" viewBox="0 0 35 35" fill="none" xmlns="http://www.w3.org/2000/svg">
<path d="M30.7417 10.2083C30.4898 9.77174 30.1289 9.4079 29.6944 9.15231C29.2599 8.89673 28.7666 8.75812 28.2626 8.75H9.59591L8.75008 5.45417C8.66462 5.13601 8.47396 4.85617 8.20915 4.66021C7.94434 4.46425 7.62099 4.36372 7.29175 4.375H4.37508C3.98831 4.375 3.61737 4.52865 3.34388 4.80214C3.07039 5.07563 2.91675 5.44656 2.91675 5.83333C2.91675 6.22011 3.07039 6.59104 3.34388 6.86453C3.61737 7.13802 3.98831 7.29167 4.37508 7.29167H6.18341L10.2084 22.2542C10.2939 22.5723 10.4845 22.8522 10.7493 23.0481C11.0142 23.2441 11.3375 23.3446 11.6667 23.3333H24.7917C25.0611 23.3325 25.3249 23.2571 25.554 23.1156C25.7831 22.974 25.9685 22.7717 26.0897 22.5312L30.873 12.9646C31.0803 12.53 31.1768 12.0509 31.1539 11.57C31.131 11.089 30.9894 10.6212 30.7417 10.2083Z" fill="#B1B1B1"/>
<path d="M10.9375 30.625C12.1456 30.625 13.125 29.6456 13.125 28.4375C13.125 27.2294 12.1456 26.25 10.9375 26.25C9.72938 26.25 8.75 27.2294 8.75 28.4375C8.75 29.6456 9.72938 30.625 10.9375 30.625Z" fill="#B1B1B1"/>
<path d="M25.521 30.625C26.7291 30.625 27.7085 29.6456 27.7085 28.4375C27.7085 27.2294 26.7291 26.25 25.521 26.25C24.3129 26.25 23.3335 27.2294 23.3335 28.4375C23.3335 29.6456 24.3129 30.625 25.521 30.625Z" fill="#B1B1B1"/>
</svg>
