<svg width="30" height="30" viewBox="0 0 30 30" fill="none" xmlns="http://www.w3.org/2000/svg">
<path d="M27.0002 14.025L21.2502 9.4V6.25C21.2808 5.61868 21.0598 5.00098 20.6357 4.53233C20.2116 4.06369 19.6189 3.78235 18.9877 3.75H4.73769C4.1109 3.7887 3.52459 4.07279 3.10579 4.54073C2.68698 5.00867 2.4694 5.62277 2.50019 6.25V18.75C2.48859 19.2464 2.62506 19.735 2.8922 20.1535C3.15934 20.572 3.54506 20.9015 4.00019 21.1C3.76998 21.6632 3.68026 22.2739 3.73877 22.8795C3.79728 23.4851 4.00226 24.0674 4.33603 24.5761C4.66979 25.0848 5.12232 25.5046 5.65456 25.7994C6.1868 26.0942 6.78277 26.255 7.39105 26.268C7.99933 26.2811 8.60164 26.1459 9.14602 25.8742C9.6904 25.6025 10.1605 25.2024 10.5157 24.7085C10.871 24.2146 11.1007 23.6416 11.1851 23.0391C11.2695 22.4366 11.2061 21.8225 11.0002 21.25H18.9502C18.7446 21.8164 18.6785 22.424 18.7576 23.0214C18.8367 23.6187 19.0585 24.1883 19.4043 24.6817C19.7502 25.1751 20.2098 25.578 20.7444 25.8561C21.2789 26.1342 21.8726 26.2794 22.4752 26.2794C23.0778 26.2794 23.6714 26.1342 24.206 25.8561C24.7405 25.578 25.2002 25.1751 25.546 24.6817C25.8919 24.1883 26.1137 23.6187 26.1928 23.0214C26.2718 22.424 26.2058 21.8164 26.0002 21.25H26.2502C26.5817 21.25 26.8997 21.1183 27.1341 20.8839C27.3685 20.6495 27.5002 20.3315 27.5002 20V15C27.4964 14.8102 27.4493 14.6237 27.3627 14.4548C27.2761 14.2859 27.1521 14.1389 27.0002 14.025ZM25.0002 15.6V18.75H21.2502V12.6L25.0002 15.6ZM8.75019 22.5C8.75019 22.7472 8.67688 22.9889 8.53952 23.1945C8.40217 23.4 8.20695 23.5602 7.97854 23.6549C7.75013 23.7495 7.4988 23.7742 7.25632 23.726C7.01385 23.6777 6.79112 23.5587 6.6163 23.3839C6.44149 23.2091 6.32244 22.9863 6.27421 22.7439C6.22597 22.5014 6.25073 22.2501 6.34534 22.0216C6.43995 21.7932 6.60016 21.598 6.80573 21.4607C7.01129 21.3233 7.25296 21.25 7.50019 21.25C7.83171 21.25 8.14965 21.3817 8.38407 21.6161C8.61849 21.8505 8.75019 22.1685 8.75019 22.5ZM23.7502 22.5C23.7502 22.7472 23.6769 22.9889 23.5395 23.1945C23.4022 23.4 23.2069 23.5602 22.9785 23.6549C22.7501 23.7495 22.4988 23.7742 22.2563 23.726C22.0138 23.6777 21.7911 23.5587 21.6163 23.3839C21.4415 23.2091 21.3224 22.9863 21.2742 22.7439C21.226 22.5014 21.2507 22.2501 21.3453 22.0216C21.4399 21.7932 21.6002 21.598 21.8057 21.4607C22.0113 21.3233 22.253 21.25 22.5002 21.25C22.8317 21.25 23.1497 21.3817 23.3841 21.6161C23.6185 21.8505 23.7502 22.1685 23.7502 22.5Z" fill="#B1B1B1"/>
</svg>
