<svg width="29" height="29" viewBox="0 0 29 29" fill="none" xmlns="http://www.w3.org/2000/svg">
<path d="M14.5001 2.41667C12.1102 2.41667 9.77404 3.12534 7.78695 4.45307C5.79985 5.78081 4.2511 7.66797 3.33654 9.87591C2.42198 12.0838 2.18269 14.5134 2.64893 16.8573C3.11517 19.2013 4.266 21.3543 5.95588 23.0442C7.64576 24.7341 9.79881 25.8849 12.1427 26.3512C14.4867 26.8174 16.9162 26.5781 19.1242 25.6635C21.3321 24.749 23.2193 23.2002 24.547 21.2131C25.8747 19.226 26.5834 16.8899 26.5834 14.5C26.5834 12.9132 26.2709 11.3419 25.6636 9.87591C25.0564 8.40989 24.1663 7.07783 23.0443 5.95579C21.9223 4.83375 20.5902 3.9437 19.1242 3.33646C17.6582 2.72921 16.0869 2.41667 14.5001 2.41667ZM14.5001 24.1667C12.5882 24.1667 10.7192 23.5997 9.12957 22.5375C7.5399 21.4754 6.3009 19.9656 5.56925 18.1993C4.8376 16.4329 4.64617 14.4893 5.01916 12.6141C5.39215 10.739 6.31281 9.01654 7.66472 7.66463C9.01663 6.31273 10.7391 5.39207 12.6142 5.01908C14.4894 4.64608 16.433 4.83752 18.1994 5.56916C19.9657 6.30081 21.4754 7.53981 22.5376 9.12949C23.5998 10.7192 24.1668 12.5881 24.1668 14.5C24.1668 17.0638 23.1483 19.5225 21.3355 21.3354C19.5226 23.1482 17.0638 24.1667 14.5001 24.1667Z" fill="#B1B1B1"/>
<path d="M19.3334 13.2917H15.7084V9.66667C15.7084 9.3462 15.5811 9.03885 15.3545 8.81224C15.1279 8.58564 14.8206 8.45833 14.5001 8.45833C14.1796 8.45833 13.8723 8.58564 13.6457 8.81224C13.4191 9.03885 13.2917 9.3462 13.2917 9.66667V14.5C13.2917 14.8205 13.4191 15.1278 13.6457 15.3544C13.8723 15.581 14.1796 15.7083 14.5001 15.7083H19.3334C19.6539 15.7083 19.9612 15.581 20.1878 15.3544C20.4144 15.1278 20.5417 14.8205 20.5417 14.5C20.5417 14.1795 20.4144 13.8722 20.1878 13.6456C19.9612 13.419 19.6539 13.2917 19.3334 13.2917Z" fill="#B1B1B1"/>
</svg>
