<svg width="25" height="25" viewBox="0 0 25 25" fill="none" xmlns="http://www.w3.org/2000/svg">
<path d="M22.5105 19.6094C24.1 18.1928 25 16.3045 25 14.345C25 12.2625 24.0251 10.315 22.2549 8.8607C20.532 7.44582 18.2515 6.6665 15.8332 6.6665C13.4149 6.6665 11.1344 7.44582 9.41175 8.8608C7.64151 10.315 6.66663 12.2625 6.66663 14.345C6.66663 16.4275 7.64151 18.3751 9.41175 19.8293C11.1344 21.2443 13.4149 22.0236 15.8332 22.0236C16.1554 22.0236 16.4796 22.0094 16.8012 21.9811L17.3504 22.4572C19.2427 24.0969 21.6626 24.9996 24.1664 24.9996H24.9998V23.2259L24.7557 22.9819C23.7929 22.0162 23.0299 20.8702 22.5105 19.6094ZM18.442 21.1976L17.3398 20.2424L16.9724 20.2874C16.5944 20.3336 16.214 20.3568 15.8332 20.3568C11.6978 20.3568 8.33328 17.6599 8.33328 14.345C8.33328 11.0301 11.6978 8.33315 15.8332 8.33315C19.9686 8.33315 23.3331 11.0301 23.3331 14.345C23.3331 15.9966 22.5092 17.5384 21.013 18.6865L20.5331 19.0548L20.7546 19.6816C21.2084 20.9618 21.8755 22.156 22.7276 23.2137C21.1407 22.9488 19.6578 22.2512 18.442 21.1976Z" fill="#B1B1B1"/>
<path d="M2.30128 15.7017C3.08134 14.7143 3.6938 13.6054 4.11418 12.4193L4.33397 11.7956L3.85444 11.4276C2.44362 10.345 1.66665 8.89199 1.66665 7.33623C1.66665 4.21001 4.84417 1.66665 8.74991 1.66665C11.6232 1.66665 14.1023 3.0432 15.2122 5.01557C15.4183 5.00557 15.6253 4.99995 15.8332 4.99995C16.2508 4.99995 16.6645 5.02021 17.0745 5.06073C16.6456 3.94954 15.9007 2.93518 14.8766 2.09404C13.2328 0.74369 11.0572 0 8.74991 0C6.44264 0 4.26704 0.74369 2.6231 2.09404C0.931553 3.48356 0 5.34526 0 7.33623C0 9.20079 0.851658 10.9974 2.35675 12.3488C1.86557 13.5308 1.14788 14.6053 0.244112 15.5118L0 15.7558V17.4998H0.833325C2.3743 17.4996 3.89409 17.1408 5.27239 16.4517C5.12126 15.8788 5.0327 15.2913 5.00828 14.6993C4.17172 15.1896 3.25542 15.5289 2.30128 15.7017Z" fill="#B1B1B1"/>
</svg>
